<svg xmlns="http://www.w3.org/2000/svg" viewBox="0 0 65 12.42" id="svg4491" width="65" height="12.42"><defs><style>.cls-1,.cls-2{fill:none}.cls-2{stroke:#333}</style></defs><g transform="translate(-510 -390.58)"><path d="M510 390.5805V403h65v-12.4195h-65zm5.74228 2.49635l1.01159 2.62886 2.60235.23621-1.97377 1.87279.59238 2.78412-2.23255-1.47684-2.234 1.47684.59238-2.78412-1.97182-1.87279 2.60039-.24102 1.01305-2.62405zm13.37911 0l1.01109 2.62886 2.60039.23621-1.97181 1.87279.59238 2.78412-2.23205-1.47684-2.2345 1.47684.59238-2.78412-1.97182-1.87279 2.60039-.24102 1.01355-2.62405zm13.37861 0l1.01159 2.62886 2.60039.23621-1.97231 1.87279.59238 2.78412-2.23205-1.47684-2.2345 1.47684.59237-2.78412-1.97181-1.87279 2.60039-.24102 1.01355-2.62405zm13.37861 0l1.01159 2.62886 2.60235.23621-1.97377 1.87279.59238 2.78412-2.23255-1.47684-2.234 1.47684.59237-2.78412-1.97231-1.87279 2.60039-.24102 1.01355-2.62405zm13.37911 0l1.01109 2.62886 2.60285.23621-1.97427 1.87279.59238 2.78412-2.23205-1.47684-2.2345 1.47684.59237-2.78412-1.97181-1.87279 2.60039-.24102 1.01355-2.62405z" id="rect4619" fill="#fff"/><g id="baseline-star -24px" transform="translate(550.342 391.886) scale(.92266)"><path id="Pfad_70" data-name="Pfad 70" class="cls-1" d="M0 0h12v12H0z" fill="none"/><path id="Pfad_71" data-name="Pfad 71" class="cls-2" d="M7 9.635l3.09 1.865-.82-3.515L12 5.62l-3.6-.3L7 2 5.6 5.315 2 5.62l2.73 2.365-.82 3.515z" transform="translate(-1 -1)" fill="none" stroke="#333"/><path id="Pfad_72" data-name="Pfad 72" class="cls-1" d="M0 0h12v12H0z" fill="none"/></g><path d="M544.41525 393.17835h8.67312v8.67237h-8.67312z" class="cls-1" data-name="Pfad 70" id="Pfad_70-3" fill="none"/><path d="M544.41525 393.17835h8.67312v8.67237h-8.67312z" class="cls-1" data-name="Pfad 72" id="Pfad_72-3" fill="none"/><g id="baseline-star-24px-9" transform="translate(510.206 391.886) scale(.92266)"><path id="Pfad_70-2" data-name="Pfad 70" class="cls-1" d="M0 0h12v12H0z" fill="none"/><path id="Pfad_71-39" data-name="Pfad 71" class="cls-2" d="M7 9.635l3.09 1.865-.82-3.515L12 5.62l-3.6-.3L7 2 5.6 5.315 2 5.62l2.73 2.365-.82 3.515z" transform="translate(-1 -1)" fill="none" stroke="#333"/><path id="Pfad_72-8" data-name="Pfad 72" class="cls-1" d="M0 0h12v12H0z" fill="none"/></g><path d="M511.40547 393.17835h8.67288v8.67237h-8.67288z" class="cls-1" data-name="Pfad 70" id="Pfad_70-3-8" fill="none"/><path d="M511.40547 393.17835h8.67288v8.67237h-8.67288z" class="cls-1" data-name="Pfad 72" id="Pfad_72-3-0" fill="none"/><g id="baseline-star-24px-5" transform="translate(523.585 391.886) scale(.92266)"><path id="Pfad_70-38" data-name="Pfad 70" class="cls-1" d="M0 0h12v12H0z" fill="none"/><path id="Pfad_71-0" data-name="Pfad 71" class="cls-2" d="M7 9.635l3.09 1.865-.82-3.515L12 5.62l-3.6-.3L7 2 5.6 5.315 2 5.62l2.73 2.365-.82 3.515z" transform="translate(-1 -1)" fill="none" stroke="#333"/><path id="Pfad_72-35" data-name="Pfad 72" class="cls-1" d="M0 0h12v12H0z" fill="none"/></g><path d="M522.93862 393.17835h8.6731v8.67237h-8.6731z" class="cls-1" data-name="Pfad 70" id="Pfad_70-3-4" fill="none"/><path d="M522.93862 393.17835h8.6731v8.67237h-8.6731z" class="cls-1" data-name="Pfad 72" id="Pfad_72-3-5" fill="none"/><g id="baseline-star-24px-34" transform="translate(536.963 391.886) scale(.92266)"><path id="Pfad_70-4" data-name="Pfad 70" class="cls-1" d="M0 0h12v12H0z" fill="none"/><path id="Pfad_71-4" data-name="Pfad 71" class="cls-2" d="M7 9.635l3.09 1.865-.82-3.515L12 5.62l-3.6-.3L7 2 5.6 5.315 2 5.62l2.73 2.365-.82 3.515z" transform="translate(-1 -1)" fill="none" stroke="#333"/><path id="Pfad_72-38" data-name="Pfad 72" class="cls-1" d="M0 0h12v12H0z" fill="none"/></g><path d="M534.47198 393.17835h8.67311v8.67237h-8.67311z" class="cls-1" data-name="Pfad 70" id="Pfad_70-3-0" fill="none"/><path d="M534.47198 393.17835h8.67311v8.67237h-8.67311z" class="cls-1" data-name="Pfad 72" id="Pfad_72-3-4" fill="none"/><g id="baseline-star-24px-6" transform="translate(563.72 391.886) scale(.92266)"><path id="Pfad_70-47" data-name="Pfad 70" class="cls-1" d="M0 0h12v12H0z" fill="none"/><path id="Pfad_71-08" data-name="Pfad 71" class="cls-2" d="M7 9.635l3.09 1.865-.82-3.515L12 5.62l-3.6-.3L7 2 5.6 5.315 2 5.62l2.73 2.365-.82 3.515z" transform="translate(-1 -1)" fill="none" stroke="#333"/><path id="Pfad_72-5" data-name="Pfad 72" class="cls-1" d="M0 0h12v12H0z" fill="none"/></g><path d="M557.5385 393.17835h8.67311v8.67237h-8.67311z" class="cls-1" data-name="Pfad 70" id="Pfad_70-3-9" fill="none"/><path d="M557.5385 393.17835h8.67311v8.67237h-8.67311z" class="cls-1" data-name="Pfad 72" id="Pfad_72-3-2" fill="none"/></g></svg>