<svg xmlns="http://www.w3.org/2000/svg" width="136" height="136" viewBox="0 0 136 136"><title>lang-en</title><circle cx="68" cy="68" r="68" fill="#00008b"/><path d="M88.725,79l39.916,19.756c.742-1.458,1.445-2.939,2.081-4.455L99.807,79Z" fill="#cf142b"/><path d="M91.725,57l37.523-18.571c-.716-1.48-1.5-2.921-2.316-4.339L80.643,57Z" fill="#cf142b"/><path d="M44.275,79,6.752,97.571c.716,1.48,1.5,2.921,2.316,4.339L55.356,79Z" fill="#cf142b"/><path d="M47.275,57,7.359,37.244C6.617,38.7,5.914,40.183,5.278,41.7L36.193,57Z" fill="#cf142b"/><path d="M75,135.643c1.347-.138,2.678-.326,4-.542V80.682l46.786,23.155q1.536-2.471,2.855-5.081L88.725,79H99.807l30.915,15.3c.289-.689.557-1.388.824-2.088L104.848,79H135.1c.216-1.322.4-2.653.542-4H75Z" fill="#fff"/><path d="M135.1,57H104.848l26.7-13.213c-.695-1.823-1.453-3.614-2.3-5.358L91.725,57H80.643l46.289-22.91c-.374-.648-.752-1.293-1.146-1.927L79,55.318V.9C77.678.683,76.347.5,75,.357V61h60.643C135.505,59.653,135.317,58.322,135.1,57Z" fill="#fff"/><path d="M.9,79H31.152L4.454,92.213c.7,1.823,1.454,3.614,2.3,5.358L44.275,79H55.356L9.068,101.91c.374.648.752,1.293,1.146,1.927L57,80.682V135.1c1.322.216,2.653.4,4,.542V75H.357C.5,76.347.683,77.678.9,79Z" fill="#fff"/><path d="M57,55.318,10.214,32.163Q8.68,34.634,7.359,37.244L47.275,57H36.193L5.278,41.7c-.289.689-.557,1.388-.823,2.088L31.152,57H.9C.683,58.322.5,59.653.357,61H61V.357C59.653.5,58.322.683,57,.9Z" fill="#fff"/><path d="M75,61V.357a68.806,68.806,0,0,0-14,0V61H.357a68.806,68.806,0,0,0,0,14H61v60.643a68.806,68.806,0,0,0,14,0V75h60.643a68.806,68.806,0,0,0,0-14Z" fill="#cf142b"/></svg>