<svg xmlns="http://www.w3.org/2000/svg" id="Ebene_1" viewBox="0 0 223.00001 80.000003" width="223" height="80"><style id="style3">.st0{fill:#287791}</style><g id="g4158"><path id="path5" d="M19.790966.0779141c-1.358723.4852594-.582309 2.74172.824941 2.1836697 1.431512-.5580503.630835-2.6931899-.824941-2.1836697M19.766704 78.42291c-.04853-.99478-.194103-1.989559-.339682-2.98434-.242628-1.52856-.582309-3.008599-.824938-4.53717-.412471-2.547609-.752152-5.095209-1.261672-7.61856-.218368-1.067569-.363944-2.135139-.6551-3.178439-.436732-1.57709-1.019044-3.12992-1.382987-4.70701-.291155-1.23741-.33968-2.47482-.558048-3.71223-.460993-2.765969-1.043305-5.556209-1.310197-8.346439-.145579-1.64988 0-3.34829.04852-4.99817.02426-.48526-.09705-.97051-.04852-1.45577.04852-.655099.121316-1.334459.194102-1.989559.02426-.291161.145579-.533791.169842-.824941.04852-1.480039-.09705-2.96008 0-4.440119.04852-.630841.242628-1.261671.266892-1.892511.02426-.897729-.16984-1.722669.04853-2.620389.266891-.99478.92199-1.89251 1.771193-2.45056 1.043306-.67936 2.353504-1.140359 2.741711-2.45055.291155-.97052-.02426-2.183669-.02426-3.178449 0-2.11087-.04853-4.24601.07279-6.35689.04852-.703621-.04853-1.382981.02426-2.0866096.145579-1.1160914.558048-3.0813908-.582309-3.8335406-.460995-.3154205-.776413.024297-.849203.4852595-.145577.7036205.09705 1.48004.266893 2.1836605.09705.4852606.339681.97052.41247 1.4557806.194104 1.6256096-.07279 3.2997596-.169841 4.9011086-.04853 1.01904.121315 1.965299-.07279 2.984339-.194104.994781-.339681 2.596131-1.480039 2.984341-.679362.242631-2.207927.412471-2.450555-.533781-.121315-.460998.169841-.994779.218367-1.455779.145576-1.334461 0-2.57187-.849203-3.63944-.315421-.388209-.679365-.800679-1.188887-.897729-.776412-.121311-2.3777657.36395-2.3535032 1.33446.024264.824939.9462542 1.23741 1.3829862 1.819719.679362.897729.339681 2.30498-.291155 3.178449-.9462537 1.310191-2.4990809-.315419-3.6394386-.266899-.4367327.0243-.8249394.24263-1.1888833.485261-.5337845.363949-1.1403576.873469-1.3829867 1.504299-.048526.145579-.048526.315419-.097052.655099l-.1698482 2.232191c-.048526 2.232189-1.2616721 4.197489-1.9410341 6.259839-.4124698 1.23741-.3154181 2.59613-.8006767 3.80928-.4124697 1.09183-1.31019798 1.86824-1.45577555 3.08139-.04852584.460991.02426294.89773.02426294 1.35872 0 .77642-.07278878 1.5043.14557756 2.25646.0970516.36394.29115513.94625.67936195 1.11609.5337845.21837.6308361-.36394.655099-.75215.097051-.92199.1455776-1.79546.1455776-2.71745 0-1.0433.097051-2.06235.4124698-3.08139.5095215-1.60135 1.4072497-3.03287 1.9410341-4.63422.2426293-.727889.2183663-1.431509.2911551-2.18366.072788-.800679.2911552-1.577089.3882068-2.353509.1698406-1.16462.1941034-2.402031.4609956-3.51812.072788-.29116.4124698-.80068.7521508-.703631.315418.0728.5095215.509532.6065732.776421.1941034.75215.048526 1.74693.048526 2.5476 0 1.52857.1213146 3.105659-.024262 4.634219-.1213149 1.26168-.5095216 2.474821-.776414 3.712231-.1455774.655099-.1455774 1.334459-.2668921 1.989559-.2668923 1.48004-.8249395 2.88729-1.1160947 4.34307-.1698405.89772-.1941032 1.81972-.291155 2.71744-.072789.80068-.2911551 1.57709-.4367327 2.35351-.1941035.97052-.5580474 1.89251-.6550991 2.911549-.097051.970522.024263 2.013821.024263 2.984341 0 1.60135-.072789 3.20271.097053 4.804059.097052.87346.5095215 1.74693.5337844 2.6204.024263 1.74693-.048526 3.51812-.1213145 5.26505-.097052 2.42629.024263 4.901109.024263 7.351669 0 2.96008-.1213146 5.94442 0 8.88023.8006766-.58231.7278878-1.40725.9705172-2.25645.4609954-1.649879 1.57709-3.08139 1.57709-4.804059 0-2.304981-.8249394-4.48864-.7278876-6.79362.072788-1.60136.2426292-3.25123.6550989-4.80406.2668924-.994779.8006766-1.9653.9462541-2.98434.2183664-1.480039-.048526-3.057129-.1455775-4.53717-.072789-1.091829.072789-2.183659.072789-3.27549 0-.994779-.1455776-1.989558-.072789-2.984349.072789-1.06756.3639439-2.11087.5095215-3.17844.072789-.60657.024263-1.16462.1698405-1.74693.1941035-.80068.1455774-1.892509 1.0433059-2.30498.8006765-.3882 1.6013524.72789 1.8439814 1.33446.291155.80068.169841 1.62562.291155 2.45056.218367 1.382989.606573 2.71745.897729 4.07617.194103.89773.24263 1.819719.485259 2.71745.412469 1.528559 1.019042 2.960079 1.528564 4.440109.460996 1.33447.82494 2.717451 1.213147 4.07618.606572 2.1594.800676 4.44011 1.33446 6.62378.48526 1.941029 1.285935 3.78501 1.843983 5.701779.194103.63084.485258 1.26168.606574 1.916781.242627 1.310189.16984 2.66892.436731 3.97912.09705.436729.09705.946249.266893 1.35872.07279.145579.242629.461.436731.29116.291157-.145581.02426-.606581.02427-.873471z" class="st0" fill="#287791"/><g transform="translate(-36.346 -82.215) scale(.50487)" id="g7"><path id="path9" d="M152.6 286.4c-.1-.2-.1-.4-.2-.6-.1-.2-.1-.5-.1-.8 0-.3-.1-.6-.1-1v-2.8c0-.4 0-.7.1-1 .1-.3.1-.5.1-.8 0-.3.1-.4.2-.6.4-1.1 1-1.9 1.8-2.4s1.9-.8 3.1-.8c.6 0 1.2.1 1.7.2s1 .3 1.4.6c.4.2.7.5 1 .9.3.3.5.7.7 1.1.1.1 0 .2-.1.3l-1.3.6c-.1.1-.2 0-.3-.1-.4-.6-.8-1.1-1.3-1.4-.5-.3-1.1-.4-1.9-.4-.8 0-1.5.2-2 .5s-.9.8-1.1 1.5c0 .1-.1.3-.1.4 0 .1-.1.4-.1.6 0 .3 0 .6-.1.9v2.6c0 .4 0 .7.1.9 0 .3.1.5.1.6 0 .2.1.3.1.4.2.7.6 1.2 1.1 1.5.5.3 1.2.5 2 .5.7 0 1.4-.2 1.9-.5.6-.3.9-.8 1.2-1.5.1-.2.1-.5.2-.9.1-.3.1-.8.1-1.3 0-.1 0-.1-.1-.1H158c-.1 0-.2-.1-.2-.2v-1.2c0-.1.1-.2.2-.2h4.6c.1 0 .2.1.2.2v1c0 .6 0 1.2-.1 1.7s-.2 1-.3 1.3c-.4 1-1 1.8-1.8 2.4-.9.6-1.9.8-3.1.8-1.2 0-2.3-.3-3.1-.8-.8-.5-1.4-1-1.8-2.1zm26.7 3.2c-1.2 0-2.2-.3-3.1-.8-.9-.5-1.4-1.3-1.8-2.4-.1-.2-.1-.4-.2-.6 0-.2-.1-.5-.1-.8 0-.3 0-.6-.1-1v-2.8c0-.4 0-.7.1-1 0-.3.1-.5.1-.8 0-.2.1-.4.2-.6.4-1.1 1-1.9 1.8-2.4s1.9-.8 3.1-.8c1.2 0 2.3.3 3.1.8.8.5 1.4 1.3 1.8 2.4.1.2.1.4.2.6 0 .2.1.5.1.8 0 .3 0 .6.1 1v2.8c0 .4 0 .7-.1 1 0 .3-.1.5-.1.8 0 .2-.1.4-.2.6-.4 1.1-1 1.8-1.8 2.4-.8.6-1.9.8-3.1.8zm0-1.7c.8 0 1.5-.2 2-.5s.9-.8 1.1-1.5c0-.1.1-.3.1-.5s.1-.4.1-.7c0-.3.1-.6.1-.9v-2.6c0-.4 0-.7-.1-.9 0-.3-.1-.5-.1-.7 0-.2-.1-.3-.1-.5-.2-.7-.6-1.2-1.1-1.5-.5-.3-1.2-.5-2-.5s-1.5.2-2 .5-.9.8-1.1 1.5c0 .1-.1.3-.1.5s-.1.4-.1.7c0 .3-.1.6-.1.9v2.6c0 .4 0 .7.1.9 0 .3.1.5.1.7 0 .2.1.3.1.5.2.7.6 1.2 1.1 1.5.5.4 1.2.5 2 .5zm21.8 1.7c-1.2 0-2.2-.3-3.1-.8-.9-.5-1.4-1.3-1.8-2.4-.1-.2-.1-.4-.2-.6 0-.2-.1-.5-.1-.8 0-.3 0-.6-.1-1v-2.8c0-.4 0-.7.1-1 0-.3.1-.5.1-.8 0-.2.1-.4.2-.6.4-1.1 1-1.9 1.8-2.4s1.9-.8 3.1-.8c1.2 0 2.3.3 3.1.8.8.5 1.4 1.3 1.8 2.4.1.2.1.4.2.6 0 .2.1.5.1.8 0 .3 0 .6.1 1v2.8c0 .4 0 .7-.1 1 0 .3-.1.5-.1.8 0 .2-.1.4-.2.6-.4 1.1-1 1.8-1.8 2.4-.8.6-1.9.8-3.1.8zm0-1.7c.8 0 1.5-.2 2-.5s.9-.8 1.1-1.5c0-.1.1-.3.1-.5s.1-.4.1-.7c0-.3.1-.6.1-.9v-2.6c0-.4 0-.7-.1-.9 0-.3-.1-.5-.1-.7 0-.2-.1-.3-.1-.5-.2-.7-.6-1.2-1.1-1.5-.5-.3-1.2-.5-2-.5s-1.5.2-2 .5-.9.8-1.1 1.5c0 .1-.1.3-.1.5s-.1.4-.1.7c0 .3-.1.6-.1.9v2.6c0 .4 0 .7.1.9 0 .3.1.5.1.7 0 .2.1.3.1.5.2.7.6 1.2 1.1 1.5.5.4 1.2.5 2 .5zm17-11.9c0-.1.1-.2.2-.2h4.9c2.5 0 4 1 4.7 2.9.1.2.1.4.2.6 0 .2.1.4.1.7 0 .3.1.6.1 1.1v3c0 .4 0 .8-.1 1.1 0 .3-.1.5-.1.7 0 .2-.1.4-.2.6-.7 1.9-2.2 2.9-4.7 2.9h-4.9c-.1 0-.2-.1-.2-.2V276zm1.9 11.6c0 .1 0 .1.1.1h2.6c.9 0 1.6-.1 2.1-.4.5-.3.9-.8 1.2-1.4 0-.1.1-.3.1-.4 0-.2.1-.4.1-.6 0-.2 0-.6.1-.9.1-.3 0-.8 0-1.3v-1.3c0-.3 0-.7-.1-.9 0-.2-.1-.5-.1-.6 0-.1-.1-.3-.1-.4-.2-.7-.6-1.1-1.2-1.4-.5-.3-1.2-.4-2.1-.4h-2.6c-.1 0-.1 0-.1.1v9.8zm35.8-11.6c0-.1.1-.2.2-.2h1.5c.1 0 .2.1.2.2v5.6c0 .1 0 .1.1.1h6.2c.1 0 .1 0 .1-.1V276c0-.1.1-.2.2-.2h1.5c.1 0 .2.1.2.2v13.2c0 .1-.1.2-.2.2h-1.5c-.1 0-.2-.1-.2-.2v-5.7c0-.1 0-.1-.1-.1h-6.2c-.1 0-.1 0-.1.1v5.7c0 .1-.1.2-.2.2H256c-.1 0-.2-.1-.2-.2V276zm22.5 0c0-.1.1-.2.2-.2h8.7c.1 0 .2.1.2.2v1.3c0 .1-.1.2-.2.2h-6.9c-.1 0-.1 0-.1.1v4c0 .1 0 .1.1.1h5.8c.1 0 .2.1.2.2v1.3c0 .1-.1.2-.2.2h-5.8c-.1 0-.1 0-.1.1v4.1c0 .1 0 .1.1.1h6.9c.1 0 .2.1.2.2v1.3c0 .1-.1.2-.2.2h-8.7c-.1 0-.2-.1-.2-.2V276zm24.4 0c0-.1.1-.2.3-.2h1.4c.1 0 .2.1.3.2l4.9 13.2c0 .1 0 .2-.1.2H308c-.1 0-.2-.1-.3-.2l-1.1-3h-5.8l-1.1 3c-.1.1-.1.2-.3.2h-1.5c-.1 0-.2-.1-.1-.2l4.9-13.2zm3.2 8.6l-2.3-6.2-2.3 6.2h4.6zm14.6-8.6c0-.1.1-.2.2-.2h1.5c.1 0 .2.1.2.2v11.6c0 .1 0 .1.1.1h6.9c.1 0 .2.1.2.2v1.3c0 .1-.1.2-.2.2h-8.7c-.1 0-.2-.1-.2-.2V276zm21.3 13.4c-.1 0-.2-.1-.2-.2v-11.6c0-.1 0-.1-.1-.1h-4c-.1 0-.2-.1-.2-.2V276c0-.1.1-.2.2-.2h10.1c.1 0 .2.1.2.2v1.3c0 .1-.1.2-.2.2h-4c-.1 0-.1 0-.1.1v11.6c0 .1-.1.2-.2.2h-1.5zm16.9-13.4c0-.1.1-.2.2-.2h1.5c.1 0 .2.1.2.2v5.6c0 .1 0 .1.1.1h6.2c.1 0 .1 0 .1-.1V276c0-.1.1-.2.2-.2h1.5c.1 0 .2.1.2.2v13.2c0 .1-.1.2-.2.2h-1.5c-.1 0-.2-.1-.2-.2v-5.7c0-.1 0-.1-.1-.1h-6.2c-.1 0-.1 0-.1.1v5.7c0 .1-.1.2-.2.2h-1.5c-.1 0-.2-.1-.2-.2V276zm38.4 0c0-.1.1-.2.2-.2h8.7c.1 0 .2.1.2.2v1.3c0 .1-.1.2-.2.2h-6.9c-.1 0-.1 0-.1.1v4.1c0 .1 0 .1.1.1h5.8c.1 0 .2.1.2.2v1.3c0 .1-.1.2-.2.2h-5.8c-.1 0-.1 0-.1.1v5.6c0 .1-.1.2-.2.2h-1.5c-.1 0-.2-.1-.2-.2V276zm25.2 13.6c-1.2 0-2.2-.3-3.1-.8-.8-.5-1.4-1.3-1.8-2.4-.1-.2-.1-.4-.2-.6-.1-.2-.1-.5-.1-.8 0-.3 0-.6-.1-1v-2.8c0-.4 0-.7.1-1 .1-.3.1-.5.1-.8 0-.3.1-.4.2-.6.4-1.1 1-1.9 1.8-2.4s1.9-.8 3.1-.8c1.2 0 2.3.3 3.1.8.8.5 1.4 1.3 1.8 2.4.1.2.1.4.2.6 0 .2.1.5.1.8 0 .3 0 .6.1 1v2.8c0 .4 0 .7-.1 1 0 .3-.1.5-.1.8 0 .2-.1.4-.2.6-.4 1.1-1 1.8-1.8 2.4-.8.5-1.9.8-3.1.8zm0-1.7c.8 0 1.5-.2 2-.5s.9-.8 1.1-1.5c0-.1.1-.3.1-.5s.1-.4.1-.7c0-.3.1-.6.1-.9v-2.6c0-.4 0-.7-.1-.9 0-.3-.1-.5-.1-.7 0-.2-.1-.3-.1-.5-.2-.7-.6-1.2-1.1-1.5-.5-.3-1.2-.5-2-.5s-1.5.2-2 .5-.9.8-1.1 1.5c0 .1-.1.3-.1.5s-.1.4-.1.7c0 .3-.1.6-.1.9v2.6c0 .4 0 .7.1.9.1.2.1.5.1.7 0 .2.1.3.1.5.2.7.6 1.2 1.1 1.5.5.4 1.2.5 2 .5zm25.4 1.5c-.1 0-.2-.1-.3-.2l-2.9-5.6h-3.2c-.1 0-.1 0-.1.1v5.4c0 .1-.1.2-.2.2h-1.5c-.1 0-.2-.1-.2-.2V276c0-.1.1-.2.2-.2h5.2c.7 0 1.3.1 1.9.3.6.2 1 .5 1.4.8.4.3.7.8.9 1.2.2.4.3 1 .3 1.6 0 .9-.3 1.7-.8 2.3-.5.6-1.2 1.1-2.1 1.4l3.1 5.8v.2l-.1.1h-1.6zm-3-7.5c.8 0 1.5-.2 2-.6.5-.4.7-1 .7-1.7s-.2-1.3-.7-1.7c-.5-.4-1.1-.6-2-.6h-3.4c-.1 0-.1 0-.1.1v4.3c0 .1 0 .1.1.1h3.4zM478 276c0-.1.1-.2.2-.2h1.4c.2 0 .3.1.3.2l4.3 9.2h.1l4.2-9.2c.1-.1.2-.2.3-.2h1.4c.1 0 .2.1.2.2v13.2c0 .1-.1.2-.2.2h-1.3c-.1 0-.2-.1-.2-.2v-9.5h-.1l-3.6 7.5c-.1.2-.2.2-.4.2h-.8c-.2 0-.3-.1-.4-.2l-3.6-7.5h-.1v9.5c0 .1-.1.2-.2.2h-1.3c-.1 0-.2-.1-.2-.2V276zm24.6 0c0-.1.1-.2.2-.2h8.7c.1 0 .2.1.2.2v1.3c0 .1-.1.2-.2.2h-6.9c-.1 0-.1 0-.1.1v4c0 .1 0 .1.1.1h5.8c.1 0 .2.1.2.2v1.3c0 .1-.1.2-.2.2h-5.8c-.1 0-.1 0-.1.1v4.1c0 .1 0 .1.1.1h6.9c.1 0 .2.1.2.2v1.3c0 .1-.1.2-.2.2h-8.7c-.1 0-.2-.1-.2-.2V276z" class="st0" fill="#287791"/></g><path id="path5-3" d="M49.180068 34.461196c.959252-.95927 1.413645-2.120488 1.413645-3.483633 0-.807805-.151485-1.565111-.504856-2.372915-.353431-.757325-.807806-1.413666-1.363183-1.918522-.555358-.504876-1.262181-.858286-2.069986-1.060255-.807787-.201843-1.868044-.302909-3.180702-.302909h-3.130244v19.942543h4.695352c1.363164 0 2.473879-.100914 3.382669-.353411.858288-.252428 1.615593-.757303 2.271935-1.413645 1.110715-1.110717 1.666094-2.423399 1.666094-4.038992 0-1.211697-.302931-2.271953-.959272-3.180722-.555358-.807807-1.312663-1.413645-2.221452-1.817539zm-2.47388-1.413644c-.454394.454374-1.21172.65632-2.271934.65632h-.706821v-5.25069h.807786c.959249 0 1.666094.201843 2.120469.656341.454392.454374.706841 1.110717.706841 1.918524.05036.908767-.202049 1.565108-.656341 2.019505zm-2.978755 3.534113h1.26218c1.51463 0 2.574863.252449 3.180703.807806.605858.555357.858287 1.161218.858287 1.969003 0 .807807-.302929 1.464149-.90877 1.969004-.60586.504897-1.514628.757324-2.776808.757324h-1.615592zm22.668869-11.258703h3.38265v19.942543h-3.38265zm27.919587-.353412c-2.877796 0-5.351678 1.009732-7.371184 3.029238-2.069986 2.019507-3.07974 4.442903-3.07974 7.219712 0 3.180723 1.161219 5.806069 3.382669 7.724589 2.019505 1.767057 4.392399 2.675846 6.916784 2.675846 2.8778 0 5.402153-1.009752 7.421662-3.029257 2.01948-1.969003 3.07974-4.442904 3.07974-7.320677 0-2.82731-1.00975-5.30119-3.07974-7.320695-2.019509-1.969024-4.442904-2.978756-7.270191-2.978756zm-.151493 17.468664c-1.817535 0-3.433147-.706822-4.846793-2.019506-1.413646-1.363163-2.120467-3.079718-2.120467-5.200208 0-1.969003.706821-3.685598 2.019483-5.048742 1.363164-1.363166 3.029262-2.069987 4.998257-2.069987 1.969028 0 3.635108.706821 4.998264 2.069987 1.36317 1.363144 2.01951 3.079739 2.01951 5.099243 0 1.969006-.70682 3.685559-2.069989 5.099227-1.312677 1.363164-2.978757 2.069986-4.998265 2.069986zm33.372234-4.594368h4.84678c-.15148 1.211699-.80779 2.271932-1.81753 3.180723-1.11072.95925-2.37292 1.413645-3.78656 1.413645-1.66608 0-3.18071-.656342-4.59436-1.918523-1.51463-1.363163-2.27195-3.13022-2.27195-5.200207 0-2.019507.70682-3.786582 2.01951-5.099244 1.36316-1.363165 3.02923-2.069989 5.04873-2.069989 2.22146 0 4.13999 1.060236 5.70509 3.130222l.15148.20205 2.4234-2.322434-.15148-.151485c-1.21168-1.413645-2.52438-2.47388-3.78655-3.07974-1.36318-.656319-2.8273-.95925-4.34194-.95925-2.87779 0-5.35167 1.009732-7.37118 3.029238-2.01947 2.019506-3.02922 4.493386-3.02922 7.371178 0 2.827312 1.00975 5.250708 2.97874 7.270194 1.96903 2.019506 4.39242 3.029259 7.16925 3.029259 2.82728 0 5.25068-1.060235 7.06824-3.130221.80781-.90879 1.41363-1.918524 1.76706-3.029258.3534-1.161218.50487-2.47388.50487-3.938028v-.858287h-8.4819v3.130221zm22.06304 7.421659h11.20818v-3.180703h-7.82554v-6.108998h7.6236v-3.180701h-7.6236v-4.291416h7.82554v-3.180725h-11.20818zm39.78413-6.664335l-14.23749-14.944302v21.608637h3.38269V31.886332l14.23746 14.8938v-21.45717h-3.38266zm23.62816-14.792838l-9.99654 21.457173h3.6351l2.17097-4.745814h8.078l2.06997 4.745814h3.68558zm-.0504 7.623607l2.57486 5.907051h-5.30118z" class="st0" fill="#287791"/></g></svg>