<svg xmlns="http://www.w3.org/2000/svg" viewBox="0 0 176.59 341.74" width="176" height="341"><path fill="#e4002b" d="M15.26 38.15h145.75V183.9H15.26z"/><path d="M125.03 68.37v4.45c-6.74.77-9.21-1.18-9.21-6.39v-7.9h-3.31v-4.72h3.32v-3.84l4.91-1.49v5.33h4.3v4.72h-4.3v7.92c-.01 2.05 1.47 2.09 4.29 1.92zm-3.2 98.69a4.29 4.29 0 1 1-4.3 4.3 4.24 4.24 0 0 1 4.3-4.3zm3.53 4.28a3.53 3.53 0 1 0-3.53 3.59 3.42 3.42 0 0 0 3.57-3.56zm-1.28-74.55a13.33 13.33 0 0 1-.19 2h-14.35c.65 2.4 2.43 3.58 5.36 3.58a5.05 5.05 0 0 0 4.27-1.91l4 2.29a9.47 9.47 0 0 1-8.3 4.07 10.25 10.25 0 0 1-7.58-2.85 10.5 10.5 0 0 1 0-14.35 9.61 9.61 0 0 1 7.23-2.9 9 9 0 0 1 6.89 2.9 10 10 0 0 1 2.67 7.17zM109.46 95h9.71a4.61 4.61 0 0 0-4.72-3.84 4.75 4.75 0 0 0-4.99 3.84z" fill="#fff"/><path d="M122.65 171.61l1.12 1.81h-1l-1-1.65h-.44v1.65h-.93v-4.25h1.49c1 0 1.63.41 1.63 1.28a1.12 1.12 0 0 1-.87 1.16zm0-1.1c0-.45-.27-.6-.74-.6h-.54v1.24h.46c.53-.02.78-.23.78-.64zm-14.75-5.35l7.88 9.63h-5.71l-6.93-8.63v8.63h-4.91v-26.64h4.91v15.99l6.54-8.38h5.87l-7.65 9.4zm1.02-111.35v19h-4.91V70.6a7.45 7.45 0 0 1-6.18 2.77 8.63 8.63 0 0 1-6.55-2.9 10.78 10.78 0 0 1 0-14.27 8.7 8.7 0 0 1 6.55-2.92 7.42 7.42 0 0 1 6.2 2.78v-2.25zm-4.91 9.56a5.11 5.11 0 0 0-1.52-3.85 5.42 5.42 0 0 0-7.53 0 5.24 5.24 0 0 0-1.49 3.85 5.37 5.37 0 0 0 1.49 3.88 5.5 5.5 0 0 0 7.53 0 5.24 5.24 0 0 0 1.52-3.88zm-6.58 36.09l4.27 2.43a10.09 10.09 0 1 1-8.61-15.15 9.5 9.5 0 0 1 8.53 4.91l-4.23 2.48a4.7 4.7 0 0 0-4.34-2.55 5 5 0 0 0-5.1 5.21 5.2 5.2 0 0 0 1.45 3.73 5 5 0 0 0 3.65 1.45 4.69 4.69 0 0 0 4.38-2.51zm-2.82 55.91v5.48a5.76 5.76 0 0 0-4 .91 4.38 4.38 0 0 0-1.75 3.93v9.09h-4.91v-19h4.88v3.28a5.82 5.82 0 0 1 5.78-3.69zm-8.86-92a12.26 12.26 0 0 1-.19 2H71.21c.65 2.39 2.44 3.57 5.37 3.57a5 5 0 0 0 4.26-1.9l4 2.29a9.45 9.45 0 0 1-8.34 4.04 10.19 10.19 0 0 1-7.57-2.86 9.75 9.75 0 0 1-2.85-7.14 9.87 9.87 0 0 1 2.81-7.16 9.61 9.61 0 0 1 7.23-2.89 9 9 0 0 1 6.89 2.89 10 10 0 0 1 2.74 7.16zm-14.61-1.83h9.69a4.59 4.59 0 0 0-4.72-3.84 4.74 4.74 0 0 0-4.97 3.84zm6.38 96.62a10.2 10.2 0 1 1-7.16-2.93 9.68 9.68 0 0 1 7.16 2.93zm-2 7.12a5.09 5.09 0 0 0-1.48-3.77 5.33 5.33 0 0 0-7.39 0 5.64 5.64 0 0 0 0 7.53 5.33 5.33 0 0 0 7.39 0 5.07 5.07 0 0 0 1.5-3.76zM63.9 53.43v5.48a5.25 5.25 0 0 0-3.84.92 4.45 4.45 0 0 0-1.66 3.92v9.09h-4.66v-19h4.66v3.28a5.54 5.54 0 0 1 5.5-3.69zm-3.13 94.72l-7.46 26.64h-5.98l-5.02-17.58-4.99 17.58h-5.97l-7.46-26.64h5.52l5.1 19.76 5.55-19.76h4.5l5.59 19.76 5.1-19.76h5.52zm-2.66-25.01a10.11 10.11 0 0 1-14.28 14.23 10.105 10.105 0 0 1 14.31-14.27zm-2 7.12a5.13 5.13 0 0 0-1.48-3.77 5.33 5.33 0 0 0-7.39 0 5.61 5.61 0 0 0 0 7.53 5.33 5.33 0 0 0 7.39 0 5.11 5.11 0 0 0 1.5-3.76zm-6.83-50.35h4.91v26.4h-4.91zm1.25-21.38v2.06a12.29 12.29 0 0 1-3.65 9.25 13 13 0 0 1-9.44 3.53 14 14 0 0 1-10.24-4 14.07 14.07 0 0 1 0-19.68 13.51 13.51 0 0 1 10-4 13.42 13.42 0 0 1 11.61 6.2l-4.49 2.59a8.22 8.22 0 0 0-7.16-3.69 8.88 8.88 0 0 0-6.24 15 9 9 0 0 0 6.62 2.44c4.07 0 6.81-1.9 7.76-5.06h-8.12v-4.64zm-7.46 23.72a9 9 0 0 1 0 12.71 8.89 8.89 0 0 1-6.46 2.59h-4.69v8.76h-5.25V79.67h9.94a8.93 8.93 0 0 1 6.46 2.58zm-2.58 6.36a3.85 3.85 0 0 0-3.88-4h-4.69v8.07h4.69a3.86 3.86 0 0 0 3.88-4.07z" fill="#fff"/><path fill="#fff" d="M42.77 114.46v4.78h-7.19v20.53h-5.26v-20.53h-7.15v-4.78h19.6zm36.06-27.18v19h-4.92v-2.25a7.45 7.45 0 0 1-6.21 2.78 8.62 8.62 0 0 1-6.54-2.89 10.76 10.76 0 0 1 0-14.28 8.66 8.66 0 0 1 6.54-2.93 7.48 7.48 0 0 1 6.21 2.78v-2.24zm-4.91 9.51a5.12 5.12 0 0 0-1.52-3.84 5.44 5.44 0 0 0-7.54 0 5.22 5.22 0 0 0-1.49 3.84 5.36 5.36 0 0 0 1.46 3.88 5.51 5.51 0 0 0 7.54 0 5.26 5.26 0 0 0 1.54-3.88z"/><path d="M58.07 286.37c3.17 0 5.47 1.81 5.47 5.62a4.73 4.73 0 0 1-1.71 4c1.34.6 2.44 2.19 2.44 4.73 0 3.86-2.35 5.88-5.68 5.88h-7.87v-20.23zm-3.73 8.1h3.49c1.22 0 2-.65 2-2.19a2 2 0 0 0-2.21-2.24h-3.28zm0 8.39h3.83a2.15 2.15 0 0 0 2.39-2.4 2.18 2.18 0 0 0-2.35-2.46h-3.87zm22.68-4.96v8.61h-3.31v-1.14a4 4 0 0 1-3.1 1.43c-2.44 0-4-1.43-4-4.13 0-3.11 2.28-4.1 4.86-4.24l2.16-.13v-.54c0-1.41-.52-2.16-1.57-2.16a1.67 1.67 0 0 0-1.69 1.83l-3.43-.16a5 5 0 0 1 5.07-5c3.22.02 5.01 1.96 5.01 5.63zm-5.26 3.13c-1 .06-1.76.46-1.76 1.46s.58 1.27 1.41 1.27a2.07 2.07 0 0 0 2.18-2.27v-.59zm8.47 12.34l3.1-8.12-4.74-12.71h3.78l2.8 8.31 2.77-8.31h3.8l-7.77 20.83zm15.74-12.58c.07 1.73 1 2.83 2.53 2.83a2.07 2.07 0 0 0 2.23-1.54l3.46.19a5.5 5.5 0 0 1-5.59 4.54c-3.71 0-6.27-2.78-6.27-7.26s2.56-7.26 6.17-7.26 5.8 2.59 5.8 6.93v1.57zm0-2.62h4.86c-.07-1.7-.82-2.81-2.37-2.81s-2.4 1.01-2.49 2.81zm17.7-1.94a3 3 0 0 0-3.22 3.21v7.07h-3.43v-13.95h3.31v1.59a3.49 3.49 0 0 1 3.34-1.73zm13.48 1.75v8.53h-3.43v-7.77c0-1.78-.82-2.78-2.14-2.78s-2.25 1.13-2.25 2.8v7.75h-3.43v-13.95h3.24v1.43a3.52 3.52 0 0 1 3.26-1.7c2.8 0 4.75 2.08 4.75 5.69z" fill="#323032"/><path d="M51.96 206.8c0 7.46-4 12-7.77 16l-6.48 6.85h14.37v10.47H22.96v-8.94l12-13.64c3.92-4.46 5.08-6.48 5.08-10.21 0-2.2-1-3.18-2.51-3.18-2.26 0-2.75 1.71-2.81 4.65l-11.81-.62c.12-9.11 5.39-14.49 14.38-14.49s14.67 4.42 14.67 13.11zm39.64 10.46c0 15.23-7.52 23.55-17.92 23.55s-17.85-8.32-17.85-23.55 7.53-23.55 17.87-23.55 17.9 8.32 17.9 23.55zm-23.74 0c0 8.62 1.53 13.09 5.82 13.09s5.87-4.47 5.87-13.09-1.53-13.09-5.87-13.09-5.85 4.46-5.85 13.09z" fill="#6398d1"/><path d="M102.73 240.14v-31.39l-4.58 2.94-4.9-9.36 12.6-8h8.69v45.76zm51.33-30.84c0 4-1.41 6.92-3.55 10.16l-14 20.68h-14.14l11-15.73c-7.46-1.46-12.72-7.09-12.72-15.11 0-9.42 7.09-15.59 16.64-15.59s16.77 6.17 16.77 15.59zm-12.91 4.07a7 7 0 0 0 .92-3.67c0-3.42-1.78-5.56-4.71-5.56s-4.71 2.14-4.71 5.56 1.77 5.57 4.71 5.57a4.54 4.54 0 0 0 3.79-1.9z" fill="#272b64"/><path d="M21.98 259.44a3.39 3.39 0 0 1 3.65 3.75 3.19 3.19 0 0 1-1.14 2.64 3.23 3.23 0 0 1 1.63 3.15 3.56 3.56 0 0 1-3.79 3.93h-5.25v-13.47zm-2.49 5.4h2.34c.81 0 1.34-.43 1.34-1.46a1.34 1.34 0 0 0-1.47-1.49h-2.21zm0 5.6h2.55a1.44 1.44 0 0 0 1.6-1.6 1.45 1.45 0 0 0-1.56-1.64h-2.59zm10.58-1.35c0 1.15.66 1.89 1.69 1.89a1.39 1.39 0 0 0 1.49-1l2.3.12a3.66 3.66 0 0 1-3.72 3c-2.48 0-4.18-1.86-4.18-4.85s1.7-4.84 4.11-4.84 3.87 1.73 3.87 4.63v1zm0-1.74h3.26c0-1.14-.55-1.88-1.58-1.88s-1.61.69-1.68 1.9zm13.42-.92l-2.27.14c0-.66-.33-1.13-1-1.13s-.92.28-.92.79.61.74 1.58 1c1.62.48 2.76 1.06 2.76 2.75 0 1.89-1.21 3.1-3.32 3.1a3.1 3.1 0 0 1-3.45-3l2.29-.14a1.08 1.08 0 0 0 1.17 1.15c.63 0 1-.31 1-.85s-.29-.73-1.47-1.06c-1.72-.5-2.86-.92-2.86-2.82s1.2-2.94 3.24-2.94a3 3 0 0 1 3.25 3.01zm4.66 2.94c0 1 .58 1.4 1.22 1.4a2.79 2.79 0 0 0 .71-.09v2.34a6.15 6.15 0 0 1-1.27.11c-1.75 0-3-1-2.94-3.13v-4.13h-1.46v-2.27h1.49v-3.08h2.29v3.08h1.9v2.27h-1.92zm5.53-.28c0 1.15.65 1.89 1.69 1.89a1.38 1.38 0 0 0 1.48-1l2.31.12a3.68 3.68 0 0 1-3.73 3c-2.47 0-4.18-1.86-4.18-4.85s1.71-4.84 4.12-4.84 3.86 1.73 3.86 4.63v1zm0-1.74h3.25c0-1.14-.54-1.88-1.58-1.88s-1.61.69-1.67 1.9zm19.34 5.56l-1-2.59H67.2l-1 2.59h-2.62l5-13.47h2l5 13.47zm-1.8-4.86l-1.58-4.31-1.58 4.31zm10.15-2a2 2 0 0 0-2.15 2.14v4.72h-2.28v-9.31h2.2v1.06a2.34 2.34 0 0 1 2.23-1.15zm3.77-1.68a2.8 2.8 0 0 1 2.27-1c2.3 0 3.91 1.91 3.91 4.84s-1.61 4.85-3.91 4.85a2.86 2.86 0 0 1-2.4-1.16v1h-2.18v-14h2.29zm0 3.64v.41c0 1.51.78 2.38 1.91 2.38s2-.92 2-2.58-.81-2.59-2-2.59-1.91.92-1.91 2.42zm9.98 1.08c0 1.15.66 1.89 1.7 1.89a1.39 1.39 0 0 0 1.48-1l2.3.12a3.66 3.66 0 0 1-3.72 3c-2.48 0-4.18-1.86-4.18-4.85s1.7-4.84 4.12-4.84 3.86 1.73 3.86 4.63v1zm0-1.74h3.26c0-1.14-.55-1.88-1.58-1.88s-1.61.69-1.68 1.9zm9.9-6.79a1.47 1.47 0 0 1-1.38 1.56 1.46 1.46 0 0 1-1.36-1.56 1.39 1.39 0 1 1 2.74 0zm-2.52 12.35v-9.31h2.33v9.31zm7.33-3.54c0 1 .58 1.4 1.22 1.4a2.7 2.7 0 0 0 .7-.09v2.34a6.11 6.11 0 0 1-1.26.11c-1.76 0-3-1-2.95-3.13v-4.09h-1.47v-2.27h1.48v-3.08h2.28v3.08h1.89v2.27h-1.89zm9.42-4.8v-1h2.14v9.65c0 2.68-1.6 4.43-4.09 4.43a3.85 3.85 0 0 1-4.16-3.58l2.27-.09a1.64 1.64 0 0 0 1.82 1.44 1.78 1.78 0 0 0 1.89-2v-1.33a2.92 2.92 0 0 1-2.29 1c-2.28 0-3.89-1.93-3.89-4.85s1.61-4.84 3.89-4.84a2.81 2.81 0 0 1 2.42 1.17zm-4 3.69c0 1.66.82 2.6 2 2.6s1.91-.89 1.91-2.38v-.43c0-1.5-.78-2.38-1.91-2.38s-2 .94-2 2.59zm10.25.83c.05 1.15.66 1.89 1.7 1.89a1.39 1.39 0 0 0 1.48-1l2.3.12a3.66 3.66 0 0 1-3.72 3c-2.47 0-4.18-1.86-4.18-4.85s1.71-4.84 4.12-4.84 3.86 1.73 3.86 4.63v1zm0-1.74h3.26c-.05-1.14-.55-1.88-1.58-1.88s-1.61.69-1.68 1.9zm9.66-2.98a2.83 2.83 0 0 1 2.27-1c2.3 0 3.92 1.91 3.92 4.84s-1.62 4.85-3.92 4.85a2.84 2.84 0 0 1-2.39-1.16v1h-2.16v-14h2.28zm0 3.64v.41c0 1.51.79 2.38 1.91 2.38s2-.92 2-2.58-.81-2.59-2-2.59-1.91.92-1.91 2.42zm9.99 1.08c.05 1.15.66 1.89 1.69 1.89a1.4 1.4 0 0 0 1.49-1l2.3.12a3.66 3.66 0 0 1-3.73 3c-2.47 0-4.18-1.86-4.18-4.85s1.71-4.84 4.12-4.84 3.87 1.73 3.87 4.63v1zm0-1.74h3.26c-.05-1.14-.55-1.88-1.59-1.88s-1.61.69-1.67 1.9zm11.8-1.3a2 2 0 0 0-2.14 2.14v4.72h-2.29v-9.31h2.21v1.06a2.32 2.32 0 0 1 2.22-1.15zm3.02-7.97v4.05h-.83v-4.05h-1.31v-.9h3.54v.9zm5.48 4.05v-2.67l-1.11 2.62h-.51l-1.12-2.62v2.67h-.88v-4.95h.74l1.49 3.4 1.48-3.4h.74v4.95z" fill="#323032"/></svg>